<mxfile host="app.diagrams.net" modified="2023-06-09T06:36:38.458Z" agent="Mozilla/5.0 (Windows NT 10.0; Win64; x64) AppleWebKit/537.36 (KHTML, like Gecko) Chrome/114.0.0.0 Safari/537.36" etag="tX0vzH725j177w3hV6Um" version="21.3.8" type="device">
  <diagram name="Sayfa -1" id="xUb8bNJpo5Gizs7goTP0">
    <mxGraphModel dx="989" dy="549" grid="1" gridSize="10" guides="1" tooltips="1" connect="1" arrows="1" fold="1" page="1" pageScale="1" pageWidth="827" pageHeight="1169" math="0" shadow="0">
      <root>
        <mxCell id="0" />
        <mxCell id="1" parent="0" />
        <mxCell id="dBao4Q6o07BwW9G4GzUX-3" value="" style="shape=image;verticalLabelPosition=bottom;labelBackgroundColor=default;verticalAlign=top;aspect=fixed;imageAspect=0;image=https://cdn-icons-png.flaticon.com/512/3885/3885264.png;" vertex="1" parent="1">
          <mxGeometry x="220" y="234" width="112" height="112" as="geometry" />
        </mxCell>
        <mxCell id="dBao4Q6o07BwW9G4GzUX-6" value="&lt;font style=&quot;font-size: 10px;&quot;&gt;Kullanıcıdan başlangıç aşamasında ses doğrulaması istenir.&lt;/font&gt;" style="text;html=1;strokeColor=none;fillColor=none;align=center;verticalAlign=middle;whiteSpace=wrap;rounded=0;fontSize=10;" vertex="1" parent="1">
          <mxGeometry x="160" y="346" width="190" height="30" as="geometry" />
        </mxCell>
        <mxCell id="dBao4Q6o07BwW9G4GzUX-7" value="" style="shape=flexArrow;endArrow=classic;html=1;rounded=0;fillColor=#f8cecc;strokeColor=#b85450;" edge="1" parent="1">
          <mxGeometry width="50" height="50" relative="1" as="geometry">
            <mxPoint x="340" y="439.99999999999994" as="sourcePoint" />
            <mxPoint x="380" y="439.99999999999994" as="targetPoint" />
          </mxGeometry>
        </mxCell>
        <mxCell id="dBao4Q6o07BwW9G4GzUX-8" value="&lt;font style=&quot;font-size: 10px;&quot;&gt;http://speakerrecognizer/control/&amp;lt;userid&amp;gt;&lt;br style=&quot;font-size: 10px;&quot;&gt;&lt;/font&gt;" style="text;html=1;align=center;verticalAlign=middle;resizable=0;points=[];autosize=1;strokeColor=none;fillColor=none;fontSize=10;fontStyle=1" vertex="1" parent="1">
          <mxGeometry x="145" y="140" width="220" height="30" as="geometry" />
        </mxCell>
        <mxCell id="dBao4Q6o07BwW9G4GzUX-9" value="" style="shape=image;verticalLabelPosition=bottom;labelBackgroundColor=default;verticalAlign=top;aspect=fixed;imageAspect=0;image=https://cdn.onlinewebfonts.com/svg/img_178343.png;" vertex="1" parent="1">
          <mxGeometry x="220" y="170" width="80" height="68.9" as="geometry" />
        </mxCell>
        <mxCell id="dBao4Q6o07BwW9G4GzUX-12" value="" style="shape=image;verticalLabelPosition=bottom;labelBackgroundColor=default;verticalAlign=top;aspect=fixed;imageAspect=0;image=https://icon-library.com/images/windows-service-icon/windows-service-icon-6.jpg;" vertex="1" parent="1">
          <mxGeometry x="224" y="407" width="76" height="76" as="geometry" />
        </mxCell>
        <mxCell id="dBao4Q6o07BwW9G4GzUX-13" value="&lt;font style=&quot;font-size: 10px;&quot;&gt;Sınavların zaman kontrolünü yapan background service çalışır.&lt;br&gt;Sınav bitiş süresi geldiğinde veritabanındaki IsEnded değerini 1&#39;e çeker.&lt;br&gt;&lt;/font&gt;" style="text;html=1;align=center;verticalAlign=middle;resizable=0;points=[];autosize=1;strokeColor=none;fillColor=none;" vertex="1" parent="1">
          <mxGeometry x="80" y="493" width="340" height="40" as="geometry" />
        </mxCell>
        <mxCell id="dBao4Q6o07BwW9G4GzUX-15" value="" style="shape=image;verticalLabelPosition=bottom;labelBackgroundColor=default;verticalAlign=top;aspect=fixed;imageAspect=0;image=https://static-00.iconduck.com/assets.00/data-store-icon-512x497-ty9rueeg.png;" vertex="1" parent="1">
          <mxGeometry x="414" y="410" width="72.1" height="70" as="geometry" />
        </mxCell>
        <mxCell id="dBao4Q6o07BwW9G4GzUX-16" value="" style="shape=flexArrow;endArrow=classic;html=1;rounded=0;fillColor=#f8cecc;strokeColor=#b85450;" edge="1" parent="1">
          <mxGeometry width="50" height="50" relative="1" as="geometry">
            <mxPoint x="350" y="289.65999999999997" as="sourcePoint" />
            <mxPoint x="390" y="289.65999999999997" as="targetPoint" />
          </mxGeometry>
        </mxCell>
        <mxCell id="dBao4Q6o07BwW9G4GzUX-17" value="" style="shape=image;verticalLabelPosition=bottom;labelBackgroundColor=default;verticalAlign=top;aspect=fixed;imageAspect=0;image=https://cdn-icons-png.flaticon.com/512/3885/3885264.png;" vertex="1" parent="1">
          <mxGeometry x="410" y="234" width="112" height="112" as="geometry" />
        </mxCell>
        <mxCell id="dBao4Q6o07BwW9G4GzUX-18" value="" style="shape=image;verticalLabelPosition=bottom;labelBackgroundColor=default;verticalAlign=top;aspect=fixed;imageAspect=0;image=https://cdn.onlinewebfonts.com/svg/img_178343.png;" vertex="1" parent="1">
          <mxGeometry x="414" y="170" width="80" height="68.9" as="geometry" />
        </mxCell>
        <mxCell id="dBao4Q6o07BwW9G4GzUX-20" value="&lt;font style=&quot;font-size: 10px;&quot;&gt;Web Speech API&lt;br style=&quot;font-size: 10px;&quot;&gt;&lt;/font&gt;" style="text;html=1;align=center;verticalAlign=middle;resizable=0;points=[];autosize=1;strokeColor=none;fillColor=none;fontSize=10;fontStyle=1" vertex="1" parent="1">
          <mxGeometry x="404" y="140" width="100" height="30" as="geometry" />
        </mxCell>
        <mxCell id="dBao4Q6o07BwW9G4GzUX-21" value="&lt;font style=&quot;font-size: 10px;&quot;&gt;Kullanıcı Web Speech API ile sınavını komutlarla yönetir.&lt;/font&gt;" style="text;html=1;strokeColor=none;fillColor=none;align=center;verticalAlign=middle;whiteSpace=wrap;rounded=0;" vertex="1" parent="1">
          <mxGeometry x="361" y="346" width="190" height="30" as="geometry" />
        </mxCell>
        <mxCell id="dBao4Q6o07BwW9G4GzUX-22" value="" style="shape=flexArrow;endArrow=classic;html=1;rounded=0;fillColor=#f8cecc;strokeColor=#b85450;" edge="1" parent="1">
          <mxGeometry width="50" height="50" relative="1" as="geometry">
            <mxPoint x="522" y="447.65999999999997" as="sourcePoint" />
            <mxPoint x="562" y="447.65999999999997" as="targetPoint" />
          </mxGeometry>
        </mxCell>
        <mxCell id="dBao4Q6o07BwW9G4GzUX-24" value="" style="shape=image;verticalLabelPosition=bottom;labelBackgroundColor=default;verticalAlign=top;aspect=fixed;imageAspect=0;image=https://blog.dotnetstudio.nl/posts/2018/12/connect-azure-ad-authenticated-signalr-hub-from-spfx/hero.png;" vertex="1" parent="1">
          <mxGeometry x="593" y="407" width="126" height="70" as="geometry" />
        </mxCell>
        <mxCell id="dBao4Q6o07BwW9G4GzUX-26" value="&lt;font style=&quot;font-size: 10px;&quot;&gt;Veritabanındaki değişim sonrası SignalR tetiklenir ve tüm kullanıcıların sınavları aynı anda biter.&lt;/font&gt;" style="text;html=1;strokeColor=none;fillColor=none;align=center;verticalAlign=middle;whiteSpace=wrap;rounded=0;" vertex="1" parent="1">
          <mxGeometry x="540" y="493" width="239" height="30" as="geometry" />
        </mxCell>
        <mxCell id="dBao4Q6o07BwW9G4GzUX-28" value="Sınav başlar" style="ellipse;whiteSpace=wrap;html=1;fontStyle=1;" vertex="1" parent="1">
          <mxGeometry x="10" y="321" width="120" height="80" as="geometry" />
        </mxCell>
        <mxCell id="dBao4Q6o07BwW9G4GzUX-31" value="" style="curved=1;endArrow=classic;html=1;rounded=0;exitX=0.667;exitY=-0.013;exitDx=0;exitDy=0;exitPerimeter=0;" edge="1" parent="1" source="dBao4Q6o07BwW9G4GzUX-28">
          <mxGeometry width="50" height="50" relative="1" as="geometry">
            <mxPoint x="110" y="320" as="sourcePoint" />
            <mxPoint x="210" y="280" as="targetPoint" />
            <Array as="points">
              <mxPoint x="130" y="280" />
            </Array>
          </mxGeometry>
        </mxCell>
        <mxCell id="dBao4Q6o07BwW9G4GzUX-32" value="" style="curved=1;endArrow=classic;html=1;rounded=0;exitX=0.572;exitY=1.013;exitDx=0;exitDy=0;exitPerimeter=0;" edge="1" parent="1" source="dBao4Q6o07BwW9G4GzUX-28">
          <mxGeometry width="50" height="50" relative="1" as="geometry">
            <mxPoint x="100" y="410" as="sourcePoint" />
            <mxPoint x="210" y="450" as="targetPoint" />
            <Array as="points">
              <mxPoint x="110" y="430" />
              <mxPoint x="160" y="450" />
            </Array>
          </mxGeometry>
        </mxCell>
      </root>
    </mxGraphModel>
  </diagram>
</mxfile>
